<?xml version="1.0" encoding="UTF-8"?>
<svg id="Calque_1" data-name="Calque 1" xmlns="http://www.w3.org/2000/svg" viewBox="0 0 68 90">
  <defs>
    <style>
      .cls-1 {
        fill: #fff;
      }

      .cls-2 {
        fill: #b3b3b3;
      }
    </style>
  </defs>
  <path class="cls-2" d="M0,0h68v90H0V0Z"/>
  <path class="cls-1" d="M27.3,54.52c0-2.46.4-4.67,1.2-6.62.8-1.96,2.46-3.66,4.97-5.12.75-.45,1.68-.95,2.78-1.5,1.1-.6,2.18-1.31,3.24-2.11,1.05-.8,1.93-1.73,2.63-2.79.75-1.1,1.13-2.36,1.13-3.76,0-1.05-.2-1.98-.6-2.79-.4-.8-.93-1.48-1.58-2.03-.65-.55-1.43-.95-2.33-1.2-.85-.3-1.73-.45-2.63-.45-1.1,0-2.11.2-3.01.6-.9.35-1.73.83-2.48,1.43-.7.55-1.36,1.2-1.96,1.96-.55.7-1.03,1.38-1.43,2.03l-6.55-4.52c.65-1.56,1.5-2.94,2.56-4.14,1.1-1.2,2.33-2.21,3.69-3.01,1.41-.85,2.91-1.48,4.52-1.88,1.61-.45,3.26-.68,4.97-.68,1.91,0,3.79.28,5.65.83,1.86.55,3.51,1.43,4.97,2.63,1.51,1.2,2.71,2.76,3.61,4.67.95,1.86,1.43,4.09,1.43,6.7,0,1.61-.2,3.04-.6,4.29-.35,1.2-.88,2.31-1.58,3.31-.7,1-1.53,1.91-2.49,2.71-.95.8-2.03,1.58-3.24,2.33-1,.6-2.01,1.18-3.01,1.73-1,.55-1.93,1.18-2.78,1.88-.8.65-1.48,1.43-2.03,2.33-.5.85-.75,1.91-.75,3.16h-8.28ZM27.45,72.06v-10.39h8.36v10.39h-8.36Z"/>
</svg>