<?xml version="1.0" encoding="UTF-8"?>
<svg id="Calque_1" data-name="Calque 1" xmlns="http://www.w3.org/2000/svg" viewBox="0 0 50 50">
  <defs>
    <style>
      .cls-1 {
        fill: none;
        stroke: #000;
        stroke-miterlimit: 10;
      }
    </style>
  </defs>
  <path d="M49.4,24.2c-.05-2.16-.4-4.24-1-6.19-.09-.28-.17-.56-.27-.84-.06-.19-.13-.38-.2-.57-.04-.12-.09-.25-.14-.37C42,1.52,21.97-5.57,8.03,7.59c.2-.73.5-2.21.02-3.93-.25-.89-.62-1.58-.95-2.06-.17-.21-.64-.74-1.44-.92-.23-.05-.92-.21-1.48.15-.55.35-.69,1.04-.75,1.36-.27,1.42-.32,6.29-.12,12.81,4.31-.17,8.62-.34,12.92-.5.91-.64,1.39-1.68,1.21-2.65-.15-.8-.68-1.29-.89-1.45-1.61-.13-3.22-.27-4.83-.4,15.34-13.14,37.96,1.13,32.49,20.82-3.61,13.02-17.59,17.08-27.88,12.52-.02,0-.04-.02-.05-.03-4.9-2.18-8.95-6.32-10.64-12.38-.06-.2-.11-.44-.16-.7-.23-1.26-.37-3.11-.66-4.59-.22-1.18-.54-2.14-1.06-2.4-.07-.07-.38-.38-.89-.42-.44-.03-.76.17-.85.24-.46.55-1.37,1.38-1.43,2.63-.13,2.5.88,6.03,1.32,7.38,2.67,8.23,8.96,13.36,16.1,15.34,4.33,1.22,8.97,1.28,13.33.18.11-.03.23-.06.33-.09,7.25-1.92,13.66-7.06,16.38-15.43.06-.18.11-.35.17-.53.01-.03.02-.06.03-.09.73-2.44,1.1-4.81,1.15-7.09,0-.11,0-.23,0-.34,0-.27,0-.53-.01-.8Z"/>
  <path class="cls-1" d="M49.4,24.2c-.07-2.15-.42-4.22-1-6.19-.09-.28-.17-.56-.27-.84-.06-.19-.13-.38-.2-.57-.04-.12-.09-.25-.14-.37C44.27,7.08,35.4.59,25,.59c-6.61,0-12.59,2.62-16.98,6.88-1.66,1.61-3.1,3.45-4.24,5.48v1.54h12.46c1.08,0,2.52-3.65-.54-4.23-1.25-.23-2.84.35-3.96-.27,15.34-13.14,37.96,1.13,32.49,20.82-3.61,13.02-17.59,17.08-27.88,12.52-.02,0-.04-.02-.05-.03-5.28-2.54-9.28-7.31-10.8-13.08-.23-1.26-.37-3.11-.66-4.59-.22-1.18-.54-2.14-1.06-2.4-.09-.09-.4-.39-.89-.42-.27-.02-.48.05-.6.1-.18.08-.42.21-.66.4-.21.17-.37.35-.48.49,0,0-.53.72-.54,1.87-.01,6.85,3.94,12.58,3.94,12.58,1.37,1.99,5.81,7.85,13.48,10.14,3.26.97,6.14,1.02,6.98,1.02,2.2,0,4.32-.29,6.35-.84.11-.03.22-.06.33-.09,7.83-2.22,14.05-8.26,16.55-15.96.01-.03.02-.06.03-.09.71-2.24,1.11-4.62,1.15-7.09,0-.11,0-.23,0-.34,0-.27,0-.53-.01-.8Z"/>
  <path class="cls-1" d="M5.49,30.22c-.39-1.47-.61-3.01-.66-4.59.28,1.48.43,3.33.66,4.59Z"/>
  <path class="cls-1" d="M45.29,25.06c0,11.17-9.06,20.23-20.23,20.23-3.12,0-6.08-.71-8.72-1.97,10.29,4.56,24.27.5,27.88-12.52C49.69,11.11,27.07-3.16,11.73,9.98c1.12.62,2.72.04,3.96.27,3.06.58,1.62,4.23.54,4.23H7.81c3.56-5.8,9.95-9.66,17.25-9.66,11.17,0,20.23,9.06,20.23,20.23Z"/>
</svg>