<?xml version="1.0" encoding="UTF-8"?>
<svg id="Calque_1" data-name="Calque 1" xmlns="http://www.w3.org/2000/svg" viewBox="0 0 24.09 24.09">
  <defs>
    <style>
      .cls-1 {
        fill: none;
        stroke: #000;
        stroke-miterlimit: 10;
      }
    </style>
  </defs>
  <path d="M23.59,11.67c-.02-1.02-.19-2.01-.47-2.93-.04-.13-.08-.26-.13-.4-.03-.09-.06-.18-.09-.27-.02-.06-.04-.12-.07-.18C20.09.94,10.62-2.41,4.02,3.81c.09-.35.24-1.05,0-1.86-.12-.42-.29-.75-.45-.97-.08-.1-.3-.35-.68-.44-.11-.02-.44-.1-.7.07-.23.15-.31.42-.35.64-.13.67-.3,3.09-.44,6.35,1.62-.03,3.32-.14,5.11-.35.47-.06.93-.12,1.38-.18.43-.3.66-.79.57-1.25-.07-.38-.32-.61-.42-.69-.76-.06-1.52-.13-2.28-.19,7.26-6.22,17.96.53,15.37,9.85-1.71,6.16-8.32,8.08-13.19,5.92,0,0-.02,0-.02-.01-2.32-1.03-4.23-2.99-5.03-5.86-.03-.09-.05-.21-.08-.33-.11-.6-.18-1.47-.31-2.17-.1-.56-.26-1.01-.5-1.14-.03-.03-.18-.18-.42-.2-.21-.01-.36.08-.4.11-.22.26-.65.65-.68,1.24-.06,1.18.42,2.85.62,3.49,1.26,3.89,4.24,6.32,7.62,7.26,2.05.58,4.24.61,6.31.09.05-.01.11-.03.16-.04,3.43-.91,6.46-3.34,7.75-7.3.03-.09.05-.17.08-.25v-.04c.36-1.15.53-2.28.56-3.35v-.55Z"/>
  <path class="cls-1" d="M23.58,11.67c-.03-1.02-.2-2-.47-2.93-.04-.13-.08-.26-.13-.4-.03-.09-.06-.18-.09-.27-.02-.06-.04-.12-.07-.18C21.15,3.57,16.96.5,12.04.5c-3.13,0-5.96,1.24-8.03,3.25-.79.76-1.47,1.63-2.01,2.59v.73h5.89c.51,0,1.19-1.73-.26-2-.59-.11-1.34.17-1.87-.13,7.26-6.22,17.96.53,15.37,9.85-1.71,6.16-8.32,8.08-13.19,5.92,0,0-.02,0-.02-.01-2.5-1.2-4.39-3.46-5.11-6.19-.11-.6-.18-1.47-.31-2.17-.1-.56-.26-1.01-.5-1.14-.04-.04-.19-.18-.42-.2-.13,0-.23.02-.28.05-.09.04-.2.1-.31.19-.1.08-.18.17-.23.23,0,0-.25.34-.26.88,0,3.24,1.86,5.95,1.86,5.95.65.94,2.75,3.71,6.38,4.8,1.54.46,2.9.48,3.3.48,1.04,0,2.04-.14,3-.4.05-.01.1-.03.16-.04,3.7-1.05,6.65-3.91,7.83-7.55,0-.01,0-.03.01-.04.34-1.06.53-2.19.54-3.35v-.16c0-.13,0-.25,0-.38h0Z"/>
  <path class="cls-1" d="M2.81,14.52c-.18-.7-.29-1.42-.31-2.17.13.7.2,1.58.31,2.17Z"/>
  <path class="cls-1" d="M21.63,12.08c0,5.28-4.29,9.57-9.57,9.57-1.48,0-2.88-.34-4.12-.93,4.87,2.16,11.48.24,13.19-5.92C23.72,5.48,13.02-1.27,5.76,4.94c.53.29,1.29.02,1.87.13,1.45.27.77,2,.26,2h-3.98c1.68-2.74,4.71-4.57,8.16-4.57,5.28,0,9.57,4.29,9.57,9.57h0Z"/>
</svg>